<svg version="1.2" xmlns="http://www.w3.org/2000/svg" xmlns:xlink="http://www.w3.org/1999/xlink" overflow="visible" preserveAspectRatio="none" viewBox="0 0 19.99999999999996 20.00000000000013" width="19.99999999999996" height="20.00000000000013"><g transform="translate(0, 0)"><g transform="translate(-6.40941384945356e-14, 9.106432687085262e-16) rotate(0)"><path d="M19.9999,10.01937c-0.0256,6.17887 -4.74423,9.96106 -10.13898,9.98056c-5.39474,0.0195 -9.83665,-4.11483 -9.86083,-9.98056c-0.02418,-5.86573 4.70865,-9.99763 9.86083,-10.01928c5.15218,-0.02165 10.16458,3.84041 10.13898,10.01928zM9.88647,1.83755c-4.21767,-0.03934 -8.10448,3.69264 -8.04892,8.17825c0.05556,4.48561 3.51798,8.1489 8.04892,8.14665c4.53094,-0.00226 8.26167,-3.24352 8.27596,-8.14665c0.01428,-4.90313 -4.05829,-8.13892 -8.27596,-8.17825zM15.91316,9.94524c0.03037,3.26672 -2.61373,5.94595 -5.88037,5.94595c-3.26664,0 -5.91541,-2.66139 -5.94595,-5.94595c-0.03053,-3.28456 2.61223,-5.83642 5.83642,-5.83642c3.2242,0 5.95952,2.5697 5.98989,5.83642z" style="stroke-width: 0; stroke: rgb(102, 102, 102); stroke-linecap: butt; stroke-linejoin: miter; fill: rgb(1, 132, 102);" vector-effect="non-scaling-stroke"/></g><defs><path id="path-157520489070626" d="M19.9999,10.01937c-0.0256,6.17887 -4.74423,9.96106 -10.13898,9.98056c-5.39474,0.0195 -9.83665,-4.11483 -9.86083,-9.98056c-0.02418,-5.86573 4.70865,-9.99763 9.86083,-10.01928c5.15218,-0.02165 10.16458,3.84041 10.13898,10.01928zM9.88647,1.83755c-4.21767,-0.03934 -8.10448,3.69264 -8.04892,8.17825c0.05556,4.48561 3.51798,8.1489 8.04892,8.14665c4.53094,-0.00226 8.26167,-3.24352 8.27596,-8.14665c0.01428,-4.90313 -4.05829,-8.13892 -8.27596,-8.17825zM15.91316,9.94524c0.03037,3.26672 -2.61373,5.94595 -5.88037,5.94595c-3.26664,0 -5.91541,-2.66139 -5.94595,-5.94595c-0.03053,-3.28456 2.61223,-5.83642 5.83642,-5.83642c3.2242,0 5.95952,2.5697 5.98989,5.83642z" vector-effect="non-scaling-stroke"/></defs><g style="transform: rotate(0deg) translate(-40px, -173px) translate(40px, 173px);"><defs><path id="path-157520489068010" d="M19.9999,10.01937c-0.0256,6.17887 -4.74423,9.96106 -10.13898,9.98056c-5.39474,0.0195 -9.83665,-4.11483 -9.86083,-9.98056c-0.02418,-5.86573 4.70865,-9.99763 9.86083,-10.01928c5.15218,-0.02165 10.16458,3.84041 10.13898,10.01928zM9.88647,1.83755c-4.21767,-0.03934 -8.10448,3.69264 -8.04892,8.17825c0.05556,4.48561 3.51798,8.1489 8.04892,8.14665c4.53094,-0.00226 8.26167,-3.24352 8.27596,-8.14665c0.01428,-4.90313 -4.05829,-8.13892 -8.27596,-8.17825z" vector-effect="non-scaling-stroke"/></defs><g transform="translate(-6.40941384945356e-14, 9.106432687085262e-16) rotate(0)" style="display: none;"><path d="M19.9999,10.01937c-0.0256,6.17887 -4.74423,9.96106 -10.13898,9.98056c-5.39474,0.0195 -9.83665,-4.11483 -9.86083,-9.98056c-0.02418,-5.86573 4.70865,-9.99763 9.86083,-10.01928c5.15218,-0.02165 10.16458,3.84041 10.13898,10.01928zM9.88647,1.83755c-4.21767,-0.03934 -8.10448,3.69264 -8.04892,8.17825c0.05556,4.48561 3.51798,8.1489 8.04892,8.14665c4.53094,-0.00226 8.26167,-3.24352 8.27596,-8.14665c0.01428,-4.90313 -4.05829,-8.13892 -8.27596,-8.17825z" style="stroke-width: 0; stroke: rgb(102, 102, 102); stroke-linecap: butt; stroke-linejoin: miter; fill: rgb(116, 116, 116);" vector-effect="non-scaling-stroke"/></g><g style="transform: rotate(0deg) translate(-40px, -173px) translate(40px, 173px) rotate(0deg);"><defs><path id="path-15752048906766" d="M129.03389918374856 845.6055107374641 C123.88172006187443 845.627163967565 119.1488835382998 849.7590648027954 119.1730659730985 855.6247906519343 C119.19724840789696 861.4905165010734 123.63915697576425 865.6248525254367 129.03389918374856 865.6053514644506 C134.4286413917327 865.5858504034635 139.14727555021935 861.803657048231 139.172876055808 855.6247906519343 C139.19847656139677 849.4459242556376 134.18607830562246 845.583857507363 129.03389918374856 845.6055107374641 Z" vector-effect="non-scaling-stroke"/></defs><g transform="translate(-119.17297370269738, -845.6054201596861)" style="display: none;"><path d="M129.03389918374856 845.6055107374641 C123.88172006187443 845.627163967565 119.1488835382998 849.7590648027954 119.1730659730985 855.6247906519343 C119.19724840789696 861.4905165010734 123.63915697576425 865.6248525254367 129.03389918374856 865.6053514644506 C134.4286413917327 865.5858504034635 139.14727555021935 861.803657048231 139.172876055808 855.6247906519343 C139.19847656139677 849.4459242556376 134.18607830562246 845.583857507363 129.03389918374856 845.6055107374641 Z" style="stroke-width: 1; stroke: rgb(102, 102, 102); stroke-linecap: butt; stroke-linejoin: miter; fill: rgb(235, 235, 235);" vector-effect="non-scaling-stroke"/></g></g><g style="transform: rotate(0deg) translate(-40px, -173px) translate(41.837px, 174.837px) rotate(0deg);"><defs><path id="path-15752048906704" d="M105.32412024386588 690.2268090415531 C101.10645360633256 690.1874719658141 97.21964116928761 693.9194525007952 97.27519984889102 698.4050618041539 C97.3307585284944 702.8906711075128 100.79317871534668 706.5539655100443 105.32412024386588 706.5517100397606 C109.85506177238511 706.5494545694769 113.58579120310266 703.3081918370558 113.60007583365925 698.4050618041539 C113.61436046421572 693.5019317712519 109.54178688139916 690.266146117292 105.32412024386588 690.2268090415531 Z" vector-effect="non-scaling-stroke"/></defs><g transform="translate(-97.27461135008225, -690.2265008803971)" style="display: none;"><path d="M105.32412024386588 690.2268090415531 C101.10645360633256 690.1874719658141 97.21964116928761 693.9194525007952 97.27519984889102 698.4050618041539 C97.3307585284944 702.8906711075128 100.79317871534668 706.5539655100443 105.32412024386588 706.5517100397606 C109.85506177238511 706.5494545694769 113.58579120310266 703.3081918370558 113.60007583365925 698.4050618041539 C113.61436046421572 693.5019317712519 109.54178688139916 690.266146117292 105.32412024386588 690.2268090415531 Z" style="stroke-width: 1; stroke: rgb(102, 102, 102); stroke-linecap: butt; stroke-linejoin: miter; fill: rgb(235, 235, 235);" vector-effect="non-scaling-stroke"/></g></g></g><g style="transform: rotate(0deg) translate(-40px, -173px) translate(44.0866px, 177.109px) rotate(0deg);"><defs><path id="path-15752048906778" d="M35.29588411941352 217.94735912382944 C32.07168454524328 217.94735912382944 29.42892831505312 220.4992235710383 29.45945945945944 223.7837837837836 C29.489990603865763 227.06834399652905 32.13876723915866 229.72972972972954 35.40540540540539 229.72972972972954 C38.672043571652104 229.72972972972954 41.31613639552538 227.05050561256738 41.28577106518282 223.7837837837836 C41.25540573484034 220.51706195499983 38.520083693583786 217.94735912382944 35.29588411941352 217.94735912382944 Z" vector-effect="non-scaling-stroke"/></defs><g transform="translate(-29.459197550508158, -217.94735912382944)" style="display: none;"><path d="M35.29588411941352 217.94735912382944 C32.07168454524328 217.94735912382944 29.42892831505312 220.4992235710383 29.45945945945944 223.7837837837836 C29.489990603865763 227.06834399652905 32.13876723915866 229.72972972972954 35.40540540540539 229.72972972972954 C38.672043571652104 229.72972972972954 41.31613639552538 227.05050561256738 41.28577106518282 223.7837837837836 C41.25540573484034 220.51706195499983 38.520083693583786 217.94735912382944 35.29588411941352 217.94735912382944 Z" style="stroke-width: 0; stroke: rgb(102, 102, 102); stroke-linecap: butt; stroke-linejoin: miter; fill: rgb(1, 132, 102);" vector-effect="non-scaling-stroke"/></g></g></g></svg>