<svg version="1.2" xmlns="http://www.w3.org/2000/svg" xmlns:xlink="http://www.w3.org/1999/xlink" overflow="visible" preserveAspectRatio="none" viewBox="0 0 20.000000000000004 20.000000000000018" width="20.000000000000004" height="20.000000000000018"><g transform="translate(0, 0)"><g transform="translate(-7.576431409926984e-15, -1.1277621046712416e-13) rotate(0)"><path d="M19.9999,10.01937c-0.0256,6.17887 -4.74423,9.96106 -10.13898,9.98056c-5.39474,0.0195 -9.83665,-4.11483 -9.86083,-9.98056c-0.02418,-5.86573 4.70865,-9.99763 9.86083,-10.01928c5.15218,-0.02165 10.16458,3.84041 10.13898,10.01928zM9.88647,1.83755c-4.21767,-0.03934 -8.10448,3.69264 -8.04892,8.17825c0.05556,4.48561 3.51798,8.1489 8.04892,8.14665c4.53094,-0.00226 8.26167,-3.24352 8.27596,-8.14665c0.01428,-4.90313 -4.05829,-8.13892 -8.27596,-8.17825z" style="stroke-width: 0; stroke: rgb(102, 102, 102); stroke-linecap: butt; stroke-linejoin: miter; fill: rgb(116, 116, 116);" vector-effect="non-scaling-stroke"/></g><defs><path id="path-157520489072645" d="M19.9999,10.01937c-0.0256,6.17887 -4.74423,9.96106 -10.13898,9.98056c-5.39474,0.0195 -9.83665,-4.11483 -9.86083,-9.98056c-0.02418,-5.86573 4.70865,-9.99763 9.86083,-10.01928c5.15218,-0.02165 10.16458,3.84041 10.13898,10.01928zM9.88647,1.83755c-4.21767,-0.03934 -8.10448,3.69264 -8.04892,8.17825c0.05556,4.48561 3.51798,8.1489 8.04892,8.14665c4.53094,-0.00226 8.26167,-3.24352 8.27596,-8.14665c0.01428,-4.90313 -4.05829,-8.13892 -8.27596,-8.17825z" vector-effect="non-scaling-stroke"/></defs><g style="transform: rotate(0deg) translate(-140.057px, -172px) translate(140.057px, 172px) rotate(0deg);"><defs><path id="path-157520489070022" d="M129.03389918374864 845.6055107374651 C123.88172006187463 845.6271639675657 119.14888353829994 849.7590648027964 119.1730659730986 855.6247906519353 C119.19724840789719 861.4905165010745 123.63915697576444 865.6248525254377 129.03389918374864 865.6053514644515 C134.42864139173284 865.5858504034646 139.1472755502195 861.8036570482319 139.17287605580813 855.6247906519353 C139.19847656139694 849.4459242556386 134.18607830562257 845.583857507364 129.03389918374864 845.6055107374651 Z" vector-effect="non-scaling-stroke"/></defs><g transform="translate(-119.17297370269755, -845.6054201596869)" style="display: none;"><path d="M129.03389918374864 845.6055107374651 C123.88172006187463 845.6271639675657 119.14888353829994 849.7590648027964 119.1730659730986 855.6247906519353 C119.19724840789719 861.4905165010745 123.63915697576444 865.6248525254377 129.03389918374864 865.6053514644515 C134.42864139173284 865.5858504034646 139.1472755502195 861.8036570482319 139.17287605580813 855.6247906519353 C139.19847656139694 849.4459242556386 134.18607830562257 845.583857507364 129.03389918374864 845.6055107374651 Z" style="stroke-width: 1; stroke: rgb(102, 102, 102); stroke-linecap: butt; stroke-linejoin: miter; fill: rgb(235, 235, 235);" vector-effect="non-scaling-stroke"/></g></g><g style="transform: rotate(0deg) translate(-140.057px, -172px) translate(141.894px, 173.837px) rotate(0deg);"><defs><path id="path-157520489070020" d="M105.32412024386602 690.2268090415544 C101.10645360633272 690.1874719658151 97.21964116928773 693.9194525007968 97.27519984889115 698.4050618041554 C97.33075852849457 702.8906711075142 100.79317871534678 706.5539655100456 105.32412024386602 706.5517100397619 C109.85506177238524 706.5494545694783 113.58579120310289 703.3081918370573 113.60007583365933 698.4050618041554 C113.61436046421586 693.5019317712535 109.54178688139933 690.2661461172936 105.32412024386602 690.2268090415544 Z" vector-effect="non-scaling-stroke"/></defs><g transform="translate(-97.27461135008242, -690.2265008803984)" style="display: none;"><path d="M105.32412024386602 690.2268090415544 C101.10645360633272 690.1874719658151 97.21964116928773 693.9194525007968 97.27519984889115 698.4050618041554 C97.33075852849457 702.8906711075142 100.79317871534678 706.5539655100456 105.32412024386602 706.5517100397619 C109.85506177238524 706.5494545694783 113.58579120310289 703.3081918370573 113.60007583365933 698.4050618041554 C113.61436046421586 693.5019317712535 109.54178688139933 690.2661461172936 105.32412024386602 690.2268090415544 Z" style="stroke-width: 1; stroke: rgb(102, 102, 102); stroke-linecap: butt; stroke-linejoin: miter; fill: rgb(235, 235, 235);" vector-effect="non-scaling-stroke"/></g></g></g></svg>